<?xml version="1.0" encoding="utf-8"?>
<!-- Generator: Adobe Illustrator 23.0.1, SVG Export Plug-In . SVG Version: 6.00 Build 0)  -->
<svg version="1.1" id="Layer_1" xmlns="http://www.w3.org/2000/svg" xmlns:xlink="http://www.w3.org/1999/xlink" x="0px" y="0px"
	 viewBox="0 0 682 682" style="enable-background:new 0 0 682 682;" xml:space="preserve">
<style type="text/css">
	.st0{fill:#FFFFFF;}
</style>
<path class="st0" d="M335.2,21C212.7,21,113,120.7,113,243.2c0,154,222.5,417.1,222.5,417.1s222-270.7,222-417.1
	C557.5,120.7,457.8,21,335.2,21z M402.3,308.3c-18.5,18.5-42.8,27.7-67.1,27.7c-24.3,0-48.6-9.2-67.1-27.7c-37-37-37-97.1,0-134.1
	c17.9-17.9,41.7-27.8,67.1-27.8c25.3,0,49.1,9.9,67.1,27.8C439.2,211.2,439.2,271.3,402.3,308.3z"/>
</svg>
