<?xml version="1.0" encoding="utf-8"?>
<!-- Generator: Adobe Illustrator 23.0.1, SVG Export Plug-In . SVG Version: 6.00 Build 0)  -->
<svg version="1.1" id="Layer_1" xmlns="http://www.w3.org/2000/svg" xmlns:xlink="http://www.w3.org/1999/xlink" x="0px" y="0px"
	 viewBox="0 0 218 218" style="enable-background:new 0 0 218 218;" xml:space="preserve">
<style type="text/css">
	.st0{fill:#EB4C89;}
	.st1{fill:#FFFFFF;}
</style>
<g id="XMLID_1110_">
	<circle class="st0" cx="109.5" cy="108.5" r="108.5"/>
	<path id="XMLID_1111_" class="st1" d="M109,39.5c-38.4,0-69.5,31.1-69.5,69.5c0,38.4,31.1,69.5,69.5,69.5
		c38.4,0,69.5-31.1,69.5-69.5C178.5,70.6,147.4,39.5,109,39.5z M109,51.6c13.2,0,25.3,4.5,35,12c-7,9-16.6,16.1-28.9,21.3
		c-5.9-10.8-12.6-21.3-20.2-31.5C99.4,52.3,104.1,51.6,109,51.6z M83.1,57.8c7.7,10.1,14.5,20.5,20.5,31.2
		c-14.1,4.1-30.9,6.3-50.3,6.4C57.3,79,68.4,65.3,83.1,57.8z M51.6,109c0-0.5,0.1-1,0.1-1.5c22.3,0,41.5-2.6,57.6-7.7
		c1.4,2.7,2.6,5.5,3.9,8.3c-19.6,6.1-35.7,18.7-48.3,37.5C56.6,135.7,51.6,122.9,51.6,109z M109,166.4c-13.3,0-25.5-4.6-35.2-12.2
		c11.4-17.9,26-29.5,44-34.9c5.4,14,9.3,28.4,11.8,43.2C123.2,165,116.3,166.4,109,166.4z M140.9,156.7
		c-2.5-13.6-6.3-26.9-11.1-39.9c10.9-1.5,22.8-1.1,35.9,1.1C163.1,134,153.9,148,140.9,156.7z M125.1,105.3
		c-1.4-3.3-2.9-6.5-4.4-9.7c13.4-5.8,24.1-13.7,32.1-23.6c7.8,9.2,12.7,21,13.4,33.8C151.3,103.3,137.6,103.2,125.1,105.3z"/>
</g>
</svg>
