<?xml version="1.0" encoding="utf-8"?>
<!-- Generator: Adobe Illustrator 23.0.1, SVG Export Plug-In . SVG Version: 6.00 Build 0)  -->
<svg version="1.1" id="Layer_1" xmlns="http://www.w3.org/2000/svg" xmlns:xlink="http://www.w3.org/1999/xlink" x="0px" y="0px"
	 viewBox="0 0 218 218" style="enable-background:new 0 0 218 218;" xml:space="preserve">
<style type="text/css">
	.st0{fill:#3C5A99;}
	.st1{fill:#A2B1CE;}
	.st2{fill:#E8ECF3;}
	.st3{fill:#A7B5D1;}
	.st4{fill-rule:evenodd;clip-rule:evenodd;fill:#FFFFFF;}
</style>
<ellipse transform="matrix(0.7071 -0.7071 0.7071 0.7071 -45.146 109.4885)" class="st0" cx="109.6" cy="109.2" rx="108.8" ry="108.8"/>
<path class="st1" d="M107.4,115.4c-0.1-0.5-0.1-1-0.2-1.6c0.2-3.2-0.3-6.5,1.4-9.4c0.5,0.4,1,0.9,1.5,1.3c3.4,2.8,0.5,6.5,1.3,9.7
	c-0.4,0-0.9,0-1.3,0C109.2,115.4,108.3,115.4,107.4,115.4z"/>
<path class="st2" d="M112,107.4c-0.7,1.8-1.4,3.5-2.1,5.3c-1-1.9-6.1-3.7,0-5.6C110.6,107.2,111.3,107.3,112,107.4z"/>
<path class="st3" d="M107.5,104.4c0.9,0,1.8,0,2.7,0c0.4,1.4,0.9,2.8,1.3,4.1c-1.5,1-0.1,1.8,0.1,2.8c-0.5,0.5-1,1-1.4,1.4
	c-1.1,0.6-1.4,1.6-1.4,2.7C106.1,112,108,108.1,107.5,104.4z"/>
<path class="st4" d="M91.6,110.5v66.6c0,1,0.8,1.7,1.7,1.7H118c1,0,1.7-0.8,1.7-1.7v-67.7h17.9c0.9,0,1.7-0.7,1.7-1.6l1.7-20.4
	c0.1-1-0.7-1.9-1.7-1.9h-19.7V71c0-3.4,2.7-6.1,6.1-6.1h13.8c1,0,1.7-0.8,1.7-1.7V42.8c0-1-0.8-1.7-1.7-1.7h-23.4
	c-13.7,0-24.8,11.1-24.8,24.8v19.7H79.2c-1,0-1.7,0.8-1.7,1.7v20.4c0,1,0.8,1.7,1.7,1.7h12.4V110.5z"/>
</svg>
