<?xml version="1.0" encoding="utf-8"?>
<!-- Generator: Adobe Illustrator 23.0.1, SVG Export Plug-In . SVG Version: 6.00 Build 0)  -->
<svg version="1.1" id="Layer_1" xmlns="http://www.w3.org/2000/svg" xmlns:xlink="http://www.w3.org/1999/xlink" x="0px" y="0px"
	 viewBox="0 0 218 218" style="enable-background:new 0 0 218 218;" xml:space="preserve">
<style type="text/css">
	.st0{fill:url(#SVGID_1_);}
	.st1{fill:#FFFFFF;}
</style>
<linearGradient id="SVGID_1_" gradientUnits="userSpaceOnUse" x1="17.2336" y1="201.0753" x2="250.9195" y2="-32.6106">
	<stop  offset="1.104800e-03" style="stop-color:#FBE18A"/>
	<stop  offset="0.2094" style="stop-color:#FCBB45"/>
	<stop  offset="0.3765" style="stop-color:#F75274"/>
	<stop  offset="0.5238" style="stop-color:#D53692"/>
	<stop  offset="0.7394" style="stop-color:#8F39CE"/>
	<stop  offset="1" style="stop-color:#5B4FE9"/>
</linearGradient>
<circle class="st0" cx="109.4" cy="108.9" r="108.1"/>
<g>
	<circle class="st1" cx="147.4" cy="71.2" r="8.4"/>
	<path class="st1" d="M110,73.6c-19.5,0-35.3,15.8-35.3,35.3s15.8,35.3,35.3,35.3s35.3-15.8,35.3-35.3S129.5,73.6,110,73.6z
		 M110,131.5c-12.5,0-22.6-10.1-22.6-22.6c0-12.5,10.1-22.6,22.6-22.6s22.6,10.1,22.6,22.6C132.6,121.3,122.5,131.5,110,131.5z"/>
	<g>
		<path class="st1" d="M138,180.5H80.8c-23.7,0-43-19.3-43-43V80.3c0-23.7,19.3-43,43-43H138c23.7,0,43,19.3,43,43v57.2
			C181.1,161.2,161.8,180.5,138,180.5z M80.8,50.7c-16.3,0-29.6,13.3-29.6,29.6v57.2c0,16.3,13.3,29.6,29.6,29.6H138
			c16.3,0,29.6-13.3,29.6-29.6V80.3c0-16.3-13.3-29.6-29.6-29.6H80.8z"/>
	</g>
</g>
</svg>
