<?xml version="1.0" encoding="utf-8"?>
<!-- Generator: Adobe Illustrator 23.0.1, SVG Export Plug-In . SVG Version: 6.00 Build 0)  -->
<svg version="1.1" id="Layer_1" xmlns="http://www.w3.org/2000/svg" xmlns:xlink="http://www.w3.org/1999/xlink" x="0px" y="0px"
	 viewBox="0 0 218 218" style="enable-background:new 0 0 218 218;" xml:space="preserve">
<style type="text/css">
	.st0{fill:#117BB8;}
	.st1{fill:#FFFFFF;}
</style>
<g id="XMLID_1433_">
	<path id="XMLID_1439_" class="st0" d="M109.2,217.2L109.2,217.2C49.7,217.2,1.5,169,1.5,109.5l0,0C1.5,50,49.7,1.7,109.2,1.7l0,0
		C168.8,1.7,217,50,217,109.5l0,0C217,169,168.8,217.2,109.2,217.2z"/>
	<g id="XMLID_1434_">
		<g id="XMLID_1436_">
			<rect id="XMLID_1438_" x="60.4" y="85.5" class="st1" width="22.3" height="72"/>
			<path id="XMLID_1437_" class="st1" d="M71.4,76c7.3,0,13.2-6,13.2-13.3c0-7.3-5.9-13.3-13.2-13.3c-7.3,0-13.2,6-13.2,13.3
				C58.2,70.1,64.1,76,71.4,76z"/>
		</g>
		<path id="XMLID_1435_" class="st1" d="M118.3,119.7c0-10.1,4.7-16.2,13.6-16.2c8.2,0,12.1,5.8,12.1,16.2c0,10.4,0,37.8,0,37.8
			h22.2c0,0,0-26.3,0-45.6c0-19.3-10.9-28.6-26.2-28.6c-15.3,0-21.7,11.9-21.7,11.9v-9.7H96.9v72h21.4
			C118.3,157.5,118.3,130.8,118.3,119.7z"/>
	</g>
</g>
</svg>
