<?xml version="1.0" encoding="utf-8"?>
<!-- Generator: Adobe Illustrator 23.0.1, SVG Export Plug-In . SVG Version: 6.00 Build 0)  -->
<svg version="1.1" id="Layer_1" xmlns="http://www.w3.org/2000/svg" xmlns:xlink="http://www.w3.org/1999/xlink" x="0px" y="0px"
	 viewBox="0 0 218 218" style="enable-background:new 0 0 218 218;" xml:space="preserve">
<style type="text/css">
	.st0{fill:#CD2129;}
	.st1{fill:#FFFFFF;}
</style>
<g id="XMLID_1341_">
	<path id="XMLID_1343_" class="st0" d="M109,217L109,217C49.6,217,1.4,168.8,1.4,109.4l0,0C1.4,49.9,49.6,1.7,109,1.7h0
		c59.4,0,107.6,48.2,107.6,107.6l0,0C216.6,168.8,168.5,217,109,217z"/>
	<path id="XMLID_1342_" class="st1" d="M74.6,119.4c1.7,0.7,3.2,0,3.7-1.8c0.3-1.3,1.1-4.5,1.5-5.9c0.5-1.8,0.3-2.5-1.1-4.1
		c-3-3.5-4.8-8-4.8-14.4C73.8,74.6,87.7,58,110,58c19.7,0,30.5,12,30.5,28.1c0,21.2-9.4,39-23.3,39c-7.7,0-13.4-6.4-11.6-14.1
		c2.2-9.3,6.5-19.3,6.5-26.1c0-6-3.2-11-9.9-11c-7.9,0-14.2,8.1-14.2,19c0,6.9,2.3,11.6,2.3,11.6s-8,34-9.4,40
		c-2.8,11.9-0.4,26.4-0.2,27.9c0.1,0.9,1.2,1.1,1.7,0.4c0.7-0.9,10.1-12.5,13.3-24c0.9-3.3,5.2-20.2,5.2-20.2
		c2.5,4.9,10,9.1,17.9,9.1c23.6,0,39.6-21.5,39.6-50.3c0-21.8-18.4-42.1-46.5-42.1c-34.9,0-52.5,25-52.5,45.9
		C59.5,104,64.3,115.2,74.6,119.4z"/>
</g>
</svg>
