<?xml version="1.0" encoding="utf-8"?>
<!-- Generator: Adobe Illustrator 23.0.1, SVG Export Plug-In . SVG Version: 6.00 Build 0)  -->
<svg version="1.1" id="Layer_1" xmlns="http://www.w3.org/2000/svg" xmlns:xlink="http://www.w3.org/1999/xlink" x="0px" y="0px"
	 viewBox="0 0 218 218" style="enable-background:new 0 0 218 218;" xml:space="preserve">
<style type="text/css">
	.st0{fill:#33CCFF;}
	.st1{fill:#FFFFFF;}
	.st2{fill-rule:evenodd;clip-rule:evenodd;fill:#FFFFFF;}
</style>
<ellipse transform="matrix(0.2106 -0.9776 0.9776 0.2106 -20.6585 192.8982)" class="st0" cx="109.1" cy="109.2" rx="108.8" ry="108.8"/>
<g>
	<path class="st1" d="M175.2,67.3c-4.3,1.9-8.9,3.1-13.5,3.9c2.2-0.4,5.4-4.3,6.7-5.9c2-2.4,3.6-5.2,4.5-8.2c0.1-0.2,0.2-0.5,0-0.7
		c-0.3-0.1-0.5-0.1-0.7,0.1c-5.1,2.7-10.4,4.7-16.1,6.2c-0.5,0.1-0.8,0-1.1-0.3c-0.5-0.5-0.9-1-1.4-1.4c-2.4-2-4.9-3.6-7.8-4.8
		c-3.8-1.5-7.9-2.2-11.9-1.9c-3.9,0.3-7.8,1.4-11.3,3.2c-3.5,1.8-6.6,4.4-9.1,7.5c-2.6,3.2-4.5,6.9-5.5,10.9
		c-0.9,3.8-0.9,7.7-0.3,11.5c0.1,0.6,0,0.7-0.6,0.6c-22.1-3.3-40.4-11.2-55.2-28.1c-0.6-0.7-1-0.7-1.5,0.1
		c-6.5,9.7-3.3,25.4,4.8,33.1c1.1,1,2.2,2.1,3.4,3c-0.4,0.1-5.8-0.5-10.7-3c-0.6-0.4-1-0.2-1,0.6c-0.1,1.1,0,2,0.2,3.2
		c1.2,9.9,8.1,19,17.5,22.6c1.1,0.5,2.3,0.9,3.5,1.1c-2.1,0.5-4.3,0.8-10.5,0.3c-0.8-0.1-1.1,0.2-0.8,1c4.6,12.5,14.5,16.3,22,18.4
		c1,0.2,2,0.2,3,0.4c-0.1,0.1-0.1,0.1-0.2,0.2c-2.5,3.8-11,6.6-15,7.9c-7.2,2.5-15.1,3.7-22.8,2.9c-1.2-0.2-1.5-0.2-1.8,0
		c-0.3,0.2,0,0.5,0.4,0.8c1.6,1,3.1,1.9,4.7,2.8c4.9,2.6,9.9,4.6,15.2,6.1c27.4,7.6,58.2,2,78.7-18.4c16.1-16,21.8-38.1,21.8-60.3
		c0-0.9,1-1.3,1.6-1.8c4.2-3.2,7.5-6.9,10.7-11.1c0.7-0.9,0.7-1.8,0.7-2.1c0-0.1,0-0.1,0-0.1C175.7,66.9,175.7,67,175.2,67.3z"/>
	<path class="st2" d="M81.5,164.6C92.8,164.6,82,164.6,81.5,164.6C83,164.6,81.4,164.6,81.5,164.6z"/>
	<path class="st2" d="M81.5,164.6C81.3,164.6,79.3,164.6,81.5,164.6C81.5,164.6,81.1,164.6,81.5,164.6z"/>
	<path class="st2" d="M86,164.7C86,164.5,88.4,164.7,86,164.7C86,164.6,86.3,164.7,86,164.7z"/>
	<path class="st2" d="M133.4,54.9c-0.1,0.1-0.4,0.1-0.6,0C133,54.9,133.2,54.9,133.4,54.9z"/>
</g>
</svg>
