<?xml version="1.0" encoding="utf-8"?>
<!-- Generator: Adobe Illustrator 23.0.1, SVG Export Plug-In . SVG Version: 6.00 Build 0)  -->
<svg version="1.1" id="Layer_1" xmlns="http://www.w3.org/2000/svg" xmlns:xlink="http://www.w3.org/1999/xlink" x="0px" y="0px"
	 viewBox="0 0 218 218" style="enable-background:new 0 0 218 218;" xml:space="preserve">
<style type="text/css">
	.st0{fill:#60FC7C;}
	.st1{fill-rule:evenodd;clip-rule:evenodd;fill:#FFFFFF;}
</style>
<ellipse transform="matrix(0.7071 -0.7071 0.7071 0.7071 -45.3009 108.8384)" class="st0" cx="108.7" cy="109.1" rx="108.9" ry="108.9"/>
<g>
	<path class="st1" d="M108.7,39.6c-38.3,0-69.5,31.2-69.5,69.5c0,13.5,3.8,26.4,11.1,37.7L39.8,170c-1,2.1-0.6,4.7,0.9,6.4
		c1.2,1.4,2.9,2.1,4.6,2.1c0.5,0,1.1-0.1,1.6-0.2l29.1-8c10,5.4,21.3,8.2,32.7,8.2c38.3,0,69.5-31.2,69.5-69.5
		C178.2,70.8,147,39.6,108.7,39.6z M108.7,166.4c-10.1,0-20.1-2.7-28.9-7.8c-0.9-0.5-2-0.8-3.1-0.8c-0.5,0-1.1,0.1-1.6,0.2l-19,5.2
		l6.6-14.6c0.9-2,0.7-4.3-0.6-6.1c-7.1-9.8-10.8-21.4-10.8-33.5c0-31.6,25.7-57.3,57.3-57.3c31.6,0,57.3,25.7,57.3,57.3
		C166.1,140.7,140.3,166.4,108.7,166.4z"/>
	<path class="st1" d="M135.4,119.5c-2.9-1.7-6.7-3.7-10.1-2.3c-2.6,1.1-4.3,5.2-6,7.3c-0.9,1.1-1.9,1.2-3.3,0.7
		c-9.9-3.9-17.4-10.5-22.9-19.6c-0.9-1.4-0.8-2.5,0.4-3.8c1.6-1.9,3.7-4.1,4.2-6.7c0.4-2.6-0.8-5.7-1.9-8c-1.4-3-2.9-7.2-5.9-8.9
		c-2.7-1.5-6.3-0.7-8.8,1.3c-4.2,3.4-6.2,8.8-6.2,14.1c0,1.5,0.2,3,0.6,4.5c0.8,3.5,2.5,6.8,4.3,9.9c1.4,2.3,2.9,4.6,4.5,6.8
		c5.3,7.2,11.8,13.4,19.5,18.1c3.8,2.3,7.9,4.4,12.1,5.8c4.8,1.6,9,3.2,14.1,2.2c5.4-1,10.7-4.3,12.8-9.5c0.6-1.5,0.9-3.2,0.6-4.9
		C142.7,123.1,138.1,121.1,135.4,119.5z"/>
</g>
</svg>
