<?xml version="1.0" encoding="utf-8"?>
<!-- Generator: Adobe Illustrator 23.0.1, SVG Export Plug-In . SVG Version: 6.00 Build 0)  -->
<svg version="1.1" id="Layer_1" xmlns="http://www.w3.org/2000/svg" xmlns:xlink="http://www.w3.org/1999/xlink" x="0px" y="0px"
	 viewBox="0 0 218 218" style="enable-background:new 0 0 218 218;" xml:space="preserve">
<style type="text/css">
	.st0{fill:#FF0000;}
	.st1{fill:#FFFFFF;}
</style>
<ellipse transform="matrix(0.7071 -0.7071 0.7071 0.7071 -45.5242 109.2936)" class="st0" cx="109.2" cy="109.6" rx="108.7" ry="108.7"/>
<g>
	<path class="st1" d="M176.9,91.7c0-16.3-13.2-29.5-29.5-29.5H70.9c-16.3,0-29.5,13.2-29.5,29.5v35.8c0,16.3,13.2,29.5,29.5,29.5
		h76.5c16.3,0,29.5-13.2,29.5-29.5V91.7z M128.6,111.4l-30.5,16.7c-1.3,0.7-2.5-0.2-2.5-1.8V92c0-1.5,1.2-2.5,2.6-1.7l30.7,17.6
		C130.2,108.7,130,110.7,128.6,111.4z"/>
</g>
</svg>
