<?xml version="1.0" encoding="utf-8"?>
<!-- Generator: Adobe Illustrator 23.0.1, SVG Export Plug-In . SVG Version: 6.00 Build 0)  -->
<svg version="1.1" id="Layer_1" xmlns="http://www.w3.org/2000/svg" xmlns:xlink="http://www.w3.org/1999/xlink" x="0px" y="0px"
	 viewBox="0 0 218 218" style="enable-background:new 0 0 218 218;" xml:space="preserve">
<style type="text/css">
	.st0{fill:#FFFFFF;}
</style>
<path id="Icon_awesome-pencil-ruler" class="st0" d="M46.6,103.9l57.3-57.3L85.1,27.8L58.9,54.1c-1.3,1.3-3.5,1.3-4.8,0l-4.8-4.8
	c-1.3-1.3-1.3-3.5,0-4.8l26.3-26.3L61.3,4C56-1.3,47.4-1.3,42.2,4c0,0,0,0,0,0L4,42.2C-1.3,47.4-1.3,56,4,61.3L46.6,103.9z
	 M212,54.2c8-8,8-20.9,0-28.9L192.7,6c-8-8-20.9-8-28.9,0l-19.6,19.6l48.2,48.2L212,54.2z M134.6,35.2L8.1,161.7l-8,45.7
	c-0.9,4.9,2.4,9.6,7.3,10.5c1,0.2,2.1,0.2,3.1,0l45.8-8L182.8,83.4L134.6,35.2z M214,156.8l-14.3-14.3l-26.3,26.3
	c-1.3,1.3-3.5,1.3-4.8,0l-4.8-4.8c-1.3-1.3-1.3-3.5,0-4.8l26.3-26.3l-18.8-18.8l-57.3,57.3l42.7,42.7c5.3,5.3,13.8,5.3,19.1,0
	c0,0,0,0,0,0l38.2-38.2C219.2,170.6,219.1,162.1,214,156.8z"/>
</svg>
