<?xml version="1.0" encoding="utf-8"?>
<!-- Generator: Adobe Illustrator 23.0.1, SVG Export Plug-In . SVG Version: 6.00 Build 0)  -->
<svg version="1.1" id="Layer_1" xmlns="http://www.w3.org/2000/svg" xmlns:xlink="http://www.w3.org/1999/xlink" x="0px" y="0px"
	 viewBox="0 0 512 512" style="enable-background:new 0 0 512 512;" xml:space="preserve">
<style type="text/css">
	.st0{fill:none;stroke:#5689EE;stroke-width:55;stroke-miterlimit:10;}
	.st1{fill:#5689EE;}
</style>
<circle id="Ellipse_24" class="st0" cx="255.9" cy="256.5" r="227.5"/>
<g id="Subtraction_5" transform="translate(15129.999 574.999)">
	<path class="st1" d="M-14881.5-114.9c-54.9-1.8-106.3-23.8-145.4-62.4c-41-40.5-63.7-94.4-63.7-151.8c0-57.3,22.6-111.2,63.7-151.7
		c39.1-38.6,90.5-60.6,145.4-62.4V-114.9z"/>
	<path class="st1" d="M-14888.9-122v-414.1c-50,3.5-96.6,24.4-132.4,59.8c-39.8,39.2-61.7,91.5-61.7,147.2
		c0,55.7,21.9,108,61.7,147.3C-14985.5-146.4-14938.9-125.5-14888.9-122 M-14874-108.1L-14874-108.1c-59.9,0-116.1-23-158.4-64.7
		c-42.3-41.7-65.6-97.2-65.6-156.3c0-59,23.3-114.5,65.6-156.2c42.3-41.7,98.5-64.7,158.4-64.7V-108.1L-14874-108.1z"/>
</g>
</svg>
