<svg id="Capa_1" enable-background="new 0 0 508.995 508.995" height="512" viewBox="0 0 508.995 508.995" width="512" xmlns="http://www.w3.org/2000/svg"><path d="m197.573 188.379h-6.15c-35.801 0-65.108 28.328-66.681 63.748h139.512c-1.577-35.416-30.883-63.748-66.681-63.748z"/><path d="m428.513 0h-348.031c-44.366 0-80.461 39.036-80.461 87.019v219.758c0 47.982 36.095 87.018 80.461 87.018h104.492l56.241 107.171c2.591 4.937 7.706 8.03 13.282 8.03s10.691-3.093 13.282-8.03l56.241-107.171h104.492c44.366 0 80.461-39.036 80.461-87.018v-219.758c.001-47.983-36.094-87.019-80.46-87.019zm-161.193 282.128h-145.645c-14.888 0-27-12.112-27-27 0-40.134 24.565-74.635 59.448-89.266-10.311-10.331-16.695-24.581-16.695-40.295 0-31.468 25.601-57.07 57.069-57.07s57.069 25.602 57.069 57.07c0 15.714-6.385 29.964-16.695 40.295 34.883 14.63 59.448 49.131 59.448 89.265.001 14.888-12.111 27.001-26.999 27.001zm129.796-24.774c0 6.353-7.742 9.529-15.485 9.529-7.742 0-15.485-3.177-15.485-9.529v-101.053l-5.758 3.574c-1.786 1.191-3.573 1.588-4.963 1.588-5.758 0-9.729-6.155-9.729-12.309 0-4.169 1.787-8.14 5.758-10.522l26.206-15.882c1.589-.993 3.574-1.39 5.758-1.39 6.353 0 13.698 3.772 13.698 9.728z"/><path d="m194.498 152.637c14.926 0 27.069-12.143 27.069-27.07 0-14.926-12.144-27.07-27.069-27.07s-27.069 12.144-27.069 27.07c-.001 14.927 12.143 27.07 27.069 27.07z"/></svg>