<?xml version="1.0" encoding="utf-8"?>
<!-- Generator: Adobe Illustrator 23.0.1, SVG Export Plug-In . SVG Version: 6.00 Build 0)  -->
<svg version="1.1" id="Capa_1" xmlns="http://www.w3.org/2000/svg" xmlns:xlink="http://www.w3.org/1999/xlink" x="0px" y="0px"
	 viewBox="0 0 512 512" style="enable-background:new 0 0 512 512;" xml:space="preserve">
<style type="text/css">
	.st0{fill:#FFFFFF;}
</style>
<path class="st0" d="M198.7,189.5h-6.2c-36,0-65.5,28.5-67.1,64.1h140.3C264.2,218,234.7,189.5,198.7,189.5z"/>
<path class="st0" d="M431,0H81C36.3,0,0,39.3,0,87.5v221.1c0,48.3,36.3,87.5,80.9,87.5h105.1l56.6,107.8c2.6,5,7.8,8.1,13.4,8.1
	c5.6,0,10.8-3.1,13.4-8.1l56.6-107.8H431c44.6,0,80.9-39.3,80.9-87.5V87.5C512,39.3,475.7,0,431,0L431,0z M268.9,283.8H122.4
	c-15,0-27.2-12.2-27.2-27.2c0-40.4,24.7-75.1,59.8-89.8c-10.4-10.4-16.8-24.7-16.8-40.5c0-31.7,25.8-57.4,57.4-57.4
	s57.4,25.8,57.4,57.4c0,15.8-6.4,30.1-16.8,40.5c35.1,14.7,59.8,49.4,59.8,89.8C296.1,271.6,283.9,283.8,268.9,283.8z M399.5,258.9
	c0,6.4-7.8,9.6-15.6,9.6c-7.8,0-15.6-3.2-15.6-9.6V157.2l-5.8,3.6c-1.8,1.2-3.6,1.6-5,1.6c-5.8,0-9.8-6.2-9.8-12.4
	c0-4.2,1.8-8.2,5.8-10.6l26.4-16c1.6-1,3.6-1.4,5.8-1.4c6.4,0,13.8,3.8,13.8,9.8V258.9z"/>
<path class="st0" d="M195.6,153.5c15,0,27.2-12.2,27.2-27.2c0-15-12.2-27.2-27.2-27.2s-27.2,12.2-27.2,27.2
	C168.4,141.3,180.6,153.5,195.6,153.5z"/>
</svg>
