<?xml version="1.0" encoding="iso-8859-1"?>
<!-- Generator: Adobe Illustrator 19.0.0, SVG Export Plug-In . SVG Version: 6.00 Build 0)  -->
<svg version="1.1" id="Capa_1" xmlns="http://www.w3.org/2000/svg" xmlns:xlink="http://www.w3.org/1999/xlink" x="0px" y="0px"
	 viewBox="0 0 512 512" style="enable-background:new 0 0 512 512;" xml:space="preserve">
<g>
	<g>
		<path d="M473.6,0H38.4C17.229,0,0,17.229,0,38.4v435.2C0,494.771,17.229,512,38.4,512h435.2c21.171,0,38.4-17.229,38.4-38.4V38.4
			C512,17.229,494.771,0,473.6,0z M494.933,473.6c0,11.767-9.566,21.333-21.333,21.333H38.4c-11.759,0-21.333-9.566-21.333-21.333
			V38.4c0-11.768,9.566-21.333,21.333-21.333h435.2c11.759,0,21.333,9.566,21.333,21.333V473.6z"/>
	</g>
</g>
<g>
	<g>
		<path d="M76.8,34.133H42.667c-4.71,0-8.533,3.814-8.533,8.533V76.8c0,4.719,3.823,8.533,8.533,8.533H76.8
			c4.71,0,8.533-3.814,8.533-8.533V42.667C85.333,37.948,81.51,34.133,76.8,34.133z M68.267,68.267H51.2V51.2h17.067V68.267z"/>
	</g>
</g>
<g>
	<g>
		<path d="M145.067,34.133h-34.133c-4.71,0-8.533,3.814-8.533,8.533V76.8c0,4.719,3.823,8.533,8.533,8.533h34.133
			c4.71,0,8.533-3.814,8.533-8.533V42.667C153.6,37.948,149.777,34.133,145.067,34.133z M136.533,68.267h-17.067V51.2h17.067V68.267
			z"/>
	</g>
</g>
<g>
	<g>
		<path d="M213.333,34.133H179.2c-4.71,0-8.533,3.814-8.533,8.533V76.8c0,4.719,3.823,8.533,8.533,8.533h34.133
			c4.71,0,8.533-3.814,8.533-8.533V42.667C221.867,37.948,218.044,34.133,213.333,34.133z M204.8,68.267h-17.067V51.2H204.8V68.267z
			"/>
	</g>
</g>
<g>
	<g>
		<path d="M473.6,0H38.4C17.229,0,0,17.229,0,38.4v72.533c0,4.719,3.823,8.533,8.533,8.533h494.933c4.71,0,8.533-3.814,8.533-8.533
			V38.4C512,17.229,494.771,0,473.6,0z M494.933,102.4H17.067v-64c0-11.768,9.566-21.333,21.333-21.333h435.2
			c11.759,0,21.333,9.566,21.333,21.333V102.4z"/>
	</g>
</g>
<g>
	<g>
		<path d="M238.933,145.067H51.2c-4.71,0-8.533,3.814-8.533,8.533v136.533c0,4.719,3.823,8.533,8.533,8.533h187.733
			c4.71,0,8.533-3.814,8.533-8.533V153.6C247.467,148.881,243.644,145.067,238.933,145.067z M230.4,281.6H59.733V162.133H230.4
			V281.6z"/>
	</g>
</g>
<g>
	<g>
		<path d="M460.8,145.067H273.067c-4.71,0-8.533,3.814-8.533,8.533v136.533c0,4.719,3.823,8.533,8.533,8.533H460.8
			c4.71,0,8.533-3.814,8.533-8.533V153.6C469.333,148.881,465.51,145.067,460.8,145.067z M452.267,281.6H281.6V162.133h170.667
			V281.6z"/>
	</g>
</g>
<g>
	<g>
		<path d="M238.933,315.733H51.2c-4.71,0-8.533,3.814-8.533,8.533V460.8c0,4.719,3.823,8.533,8.533,8.533h187.733
			c4.71,0,8.533-3.814,8.533-8.533V324.267C247.467,319.548,243.644,315.733,238.933,315.733z M230.4,452.267H59.733V332.8H230.4
			V452.267z"/>
	</g>
</g>
<g>
	<g>
		<path d="M460.8,315.733H273.067c-4.71,0-8.533,3.814-8.533,8.533V460.8c0,4.719,3.823,8.533,8.533,8.533H460.8
			c4.71,0,8.533-3.814,8.533-8.533V324.267C469.333,319.548,465.51,315.733,460.8,315.733z M452.267,452.267H281.6V332.8h170.667
			V452.267z"/>
	</g>
</g>
<g>
	<g>
		<path d="M179.2,213.333h-68.267c-4.71,0-8.533,3.814-8.533,8.533V256c0,4.719,3.823,8.533,8.533,8.533H179.2
			c4.71,0,8.533-3.814,8.533-8.533v-34.133C187.733,217.148,183.91,213.333,179.2,213.333z M170.667,247.467h-51.2V230.4h51.2
			V247.467z"/>
	</g>
</g>
<g>
	<g>
		<path d="M162.133,179.2H128c-4.71,0-8.533,3.814-8.533,8.533v34.133c0,4.719,3.823,8.533,8.533,8.533h34.133
			c4.71,0,8.533-3.814,8.533-8.533v-34.133C170.667,183.014,166.844,179.2,162.133,179.2z M153.6,213.333h-17.067v-17.067H153.6
			V213.333z"/>
	</g>
</g>
<g>
	<g>
		<path d="M401.067,213.333H332.8c-4.71,0-8.533,3.814-8.533,8.533V256c0,4.719,3.823,8.533,8.533,8.533h68.267
			c4.71,0,8.533-3.814,8.533-8.533v-34.133C409.6,217.148,405.777,213.333,401.067,213.333z M392.533,247.467h-51.2V230.4h51.2
			V247.467z"/>
	</g>
</g>
<g>
	<g>
		<path d="M384,179.2h-34.133c-4.71,0-8.533,3.814-8.533,8.533v34.133c0,4.719,3.823,8.533,8.533,8.533H384
			c4.71,0,8.533-3.814,8.533-8.533v-34.133C392.533,183.014,388.71,179.2,384,179.2z M375.467,213.333H358.4v-17.067h17.067V213.333
			z"/>
	</g>
</g>
<g>
	<g>
		<path d="M179.2,384h-68.267c-4.71,0-8.533,3.814-8.533,8.533v34.133c0,4.719,3.823,8.533,8.533,8.533H179.2
			c4.71,0,8.533-3.814,8.533-8.533v-34.133C187.733,387.814,183.91,384,179.2,384z M170.667,418.133h-51.2v-17.067h51.2V418.133z"/>
	</g>
</g>
<g>
	<g>
		<path d="M162.133,349.867H128c-4.71,0-8.533,3.814-8.533,8.533v34.133c0,4.719,3.823,8.533,8.533,8.533h34.133
			c4.71,0,8.533-3.814,8.533-8.533V358.4C170.667,353.681,166.844,349.867,162.133,349.867z M153.6,384h-17.067v-17.067H153.6V384z"
			/>
	</g>
</g>
<g>
	<g>
		<path d="M401.067,384H332.8c-4.71,0-8.533,3.814-8.533,8.533v34.133c0,4.719,3.823,8.533,8.533,8.533h68.267
			c4.71,0,8.533-3.814,8.533-8.533v-34.133C409.6,387.814,405.777,384,401.067,384z M392.533,418.133h-51.2v-17.067h51.2V418.133z"
			/>
	</g>
</g>
<g>
	<g>
		<path d="M384,349.867h-34.133c-4.71,0-8.533,3.814-8.533,8.533v34.133c0,4.719,3.823,8.533,8.533,8.533H384
			c4.71,0,8.533-3.814,8.533-8.533V358.4C392.533,353.681,388.71,349.867,384,349.867z M375.467,384H358.4v-17.067h17.067V384z"/>
	</g>
</g>
<g>
</g>
<g>
</g>
<g>
</g>
<g>
</g>
<g>
</g>
<g>
</g>
<g>
</g>
<g>
</g>
<g>
</g>
<g>
</g>
<g>
</g>
<g>
</g>
<g>
</g>
<g>
</g>
<g>
</g>
</svg>
