<?xml version="1.0" encoding="utf-8"?>
<!-- Generator: Adobe Illustrator 23.0.1, SVG Export Plug-In . SVG Version: 6.00 Build 0)  -->
<svg version="1.1" id="Capa_1" xmlns="http://www.w3.org/2000/svg" xmlns:xlink="http://www.w3.org/1999/xlink" x="0px" y="0px"
	 viewBox="0 0 512 512" style="enable-background:new 0 0 512 512;" xml:space="preserve">
<style type="text/css">
	.st0{fill:#FFFFFF;}
</style>
<g>
	<g>
		<path class="st0" d="M473.6,0H38.4C17.2,0,0,17.2,0,38.4v435.2C0,494.8,17.2,512,38.4,512h435.2c21.2,0,38.4-17.2,38.4-38.4V38.4
			C512,17.2,494.8,0,473.6,0z M494.9,473.6c0,11.8-9.6,21.3-21.3,21.3H38.4c-11.8,0-21.3-9.6-21.3-21.3V38.4
			c0-11.8,9.6-21.3,21.3-21.3h435.2c11.8,0,21.3,9.6,21.3,21.3V473.6z"/>
	</g>
</g>
<g>
	<g>
		<path class="st0" d="M76.8,34.1H42.7c-4.7,0-8.5,3.8-8.5,8.5v34.1c0,4.7,3.8,8.5,8.5,8.5h34.1c4.7,0,8.5-3.8,8.5-8.5V42.7
			C85.3,37.9,81.5,34.1,76.8,34.1z M68.3,68.3H51.2V51.2h17.1V68.3z"/>
	</g>
</g>
<g>
	<g>
		<path class="st0" d="M145.1,34.1h-34.1c-4.7,0-8.5,3.8-8.5,8.5v34.1c0,4.7,3.8,8.5,8.5,8.5h34.1c4.7,0,8.5-3.8,8.5-8.5V42.7
			C153.6,37.9,149.8,34.1,145.1,34.1z M136.5,68.3h-17.1V51.2h17.1V68.3z"/>
	</g>
</g>
<g>
	<g>
		<path class="st0" d="M213.3,34.1h-34.1c-4.7,0-8.5,3.8-8.5,8.5v34.1c0,4.7,3.8,8.5,8.5,8.5h34.1c4.7,0,8.5-3.8,8.5-8.5V42.7
			C221.9,37.9,218,34.1,213.3,34.1z M204.8,68.3h-17.1V51.2h17.1V68.3z"/>
	</g>
</g>
<g>
	<g>
		<path class="st0" d="M473.6,0H38.4C17.2,0,0,17.2,0,38.4v72.5c0,4.7,3.8,8.5,8.5,8.5h494.9c4.7,0,8.5-3.8,8.5-8.5V38.4
			C512,17.2,494.8,0,473.6,0z M494.9,102.4H17.1v-64c0-11.8,9.6-21.3,21.3-21.3h435.2c11.8,0,21.3,9.6,21.3,21.3V102.4z"/>
	</g>
</g>
<g>
	<g>
		<path class="st0" d="M238.9,145.1H51.2c-4.7,0-8.5,3.8-8.5,8.5v136.5c0,4.7,3.8,8.5,8.5,8.5h187.7c4.7,0,8.5-3.8,8.5-8.5V153.6
			C247.5,148.9,243.6,145.1,238.9,145.1z M230.4,281.6H59.7V162.1h170.7V281.6z"/>
	</g>
</g>
<g>
	<g>
		<path class="st0" d="M460.8,145.1H273.1c-4.7,0-8.5,3.8-8.5,8.5v136.5c0,4.7,3.8,8.5,8.5,8.5h187.7c4.7,0,8.5-3.8,8.5-8.5V153.6
			C469.3,148.9,465.5,145.1,460.8,145.1z M452.3,281.6H281.6V162.1h170.7L452.3,281.6L452.3,281.6z"/>
	</g>
</g>
<g>
	<g>
		<path class="st0" d="M238.9,315.7H51.2c-4.7,0-8.5,3.8-8.5,8.5v136.5c0,4.7,3.8,8.5,8.5,8.5h187.7c4.7,0,8.5-3.8,8.5-8.5V324.3
			C247.5,319.5,243.6,315.7,238.9,315.7z M230.4,452.3H59.7V332.8h170.7V452.3z"/>
	</g>
</g>
<g>
	<g>
		<path class="st0" d="M460.8,315.7H273.1c-4.7,0-8.5,3.8-8.5,8.5v136.5c0,4.7,3.8,8.5,8.5,8.5h187.7c4.7,0,8.5-3.8,8.5-8.5V324.3
			C469.3,319.5,465.5,315.7,460.8,315.7z M452.3,452.3H281.6V332.8h170.7L452.3,452.3L452.3,452.3z"/>
	</g>
</g>
<g>
	<g>
		<path class="st0" d="M179.2,213.3h-68.3c-4.7,0-8.5,3.8-8.5,8.5V256c0,4.7,3.8,8.5,8.5,8.5h68.3c4.7,0,8.5-3.8,8.5-8.5v-34.1
			C187.7,217.1,183.9,213.3,179.2,213.3z M170.7,247.5h-51.2v-17.1h51.2V247.5z"/>
	</g>
</g>
<g>
	<g>
		<path class="st0" d="M162.1,179.2H128c-4.7,0-8.5,3.8-8.5,8.5v34.1c0,4.7,3.8,8.5,8.5,8.5h34.1c4.7,0,8.5-3.8,8.5-8.5v-34.1
			C170.7,183,166.8,179.2,162.1,179.2z M153.6,213.3h-17.1v-17.1h17.1V213.3z"/>
	</g>
</g>
<g>
	<g>
		<path class="st0" d="M401.1,213.3h-68.3c-4.7,0-8.5,3.8-8.5,8.5V256c0,4.7,3.8,8.5,8.5,8.5h68.3c4.7,0,8.5-3.8,8.5-8.5v-34.1
			C409.6,217.1,405.8,213.3,401.1,213.3z M392.5,247.5h-51.2v-17.1h51.2V247.5z"/>
	</g>
</g>
<g>
	<g>
		<path class="st0" d="M384,179.2h-34.1c-4.7,0-8.5,3.8-8.5,8.5v34.1c0,4.7,3.8,8.5,8.5,8.5H384c4.7,0,8.5-3.8,8.5-8.5v-34.1
			C392.5,183,388.7,179.2,384,179.2z M375.5,213.3h-17.1v-17.1h17.1L375.5,213.3L375.5,213.3z"/>
	</g>
</g>
<g>
	<g>
		<path class="st0" d="M179.2,384h-68.3c-4.7,0-8.5,3.8-8.5,8.5v34.1c0,4.7,3.8,8.5,8.5,8.5h68.3c4.7,0,8.5-3.8,8.5-8.5v-34.1
			C187.7,387.8,183.9,384,179.2,384z M170.7,418.1h-51.2v-17.1h51.2V418.1z"/>
	</g>
</g>
<g>
	<g>
		<path class="st0" d="M162.1,349.9H128c-4.7,0-8.5,3.8-8.5,8.5v34.1c0,4.7,3.8,8.5,8.5,8.5h34.1c4.7,0,8.5-3.8,8.5-8.5v-34.1
			C170.7,353.7,166.8,349.9,162.1,349.9z M153.6,384h-17.1v-17.1h17.1V384z"/>
	</g>
</g>
<g>
	<g>
		<path class="st0" d="M401.1,384h-68.3c-4.7,0-8.5,3.8-8.5,8.5v34.1c0,4.7,3.8,8.5,8.5,8.5h68.3c4.7,0,8.5-3.8,8.5-8.5v-34.1
			C409.6,387.8,405.8,384,401.1,384z M392.5,418.1h-51.2v-17.1h51.2V418.1z"/>
	</g>
</g>
<g>
	<g>
		<path class="st0" d="M384,349.9h-34.1c-4.7,0-8.5,3.8-8.5,8.5v34.1c0,4.7,3.8,8.5,8.5,8.5H384c4.7,0,8.5-3.8,8.5-8.5v-34.1
			C392.5,353.7,388.7,349.9,384,349.9z M375.5,384h-17.1v-17.1h17.1L375.5,384L375.5,384z"/>
	</g>
</g>
</svg>
