<?xml version="1.0" encoding="utf-8"?>
<!-- Generator: Adobe Illustrator 23.0.1, SVG Export Plug-In . SVG Version: 6.00 Build 0)  -->
<svg version="1.1" id="Layer_1" xmlns="http://www.w3.org/2000/svg" xmlns:xlink="http://www.w3.org/1999/xlink" x="0px" y="0px"
	 viewBox="0 0 512 512" style="enable-background:new 0 0 512 512;" xml:space="preserve">
<style type="text/css">
	.st0{fill:#FFFFFF;}
</style>
<path class="st0" d="M211,286c0,24.8,20.2,45,45,45s45-20.2,45-45s-20.2-45-45-45S211,261.2,211,286z"/>
<path class="st0" d="M256,361c-49.6,0-90,40.4-90,90v61h180v-61C346,401.4,305.6,361,256,361z"/>
<path class="st0" d="M136,316c0-24.8-20.2-45-45-45s-45,20.2-45,45s20.2,45,45,45S136,340.8,136,316z"/>
<path class="st0" d="M466,316c0-24.8-20.2-45-45-45s-45,20.2-45,45s20.2,45,45,45S466,340.8,466,316z"/>
<path class="st0" d="M76,0L53.2,53.8L0,61.3l38.4,36.4L29.5,151L76,126.7l46.5,24.3l-8.8-53.3L151,61.3l-51.6-7.5L76,0z"/>
<path class="st0" d="M279.4,53.8L256,0l-22.8,53.8L181,61.3l37.4,36.4l-8.8,53.3l46.5-24.3l46.5,24.3l-8.8-53.3L331,61.3L279.4,53.8
	z"/>
<path class="st0" d="M436,0l-22.8,53.8L361,61.3l37.4,36.4l-8.8,53.3l46.5-24.3l46.5,24.3l-8.8-53.3L512,61.3l-52.6-7.5L436,0z"/>
<path class="st0" d="M421,391c-19.9,0-38.2,6.7-53.1,17.7c5,13.2,8.1,27.4,8.1,42.3v61h136v-31C512,431.3,470.7,391,421,391z"/>
<path class="st0" d="M0,481v31h136v-61c0-15,3.1-29.1,8.1-42.3c-14.9-11-33.2-17.7-53.1-17.7C41.3,391,0,431.3,0,481z"/>
</svg>
