<?xml version="1.0" encoding="utf-8"?>
<!-- Generator: Adobe Illustrator 23.0.1, SVG Export Plug-In . SVG Version: 6.00 Build 0)  -->
<svg version="1.1" id="Capa_1" xmlns="http://www.w3.org/2000/svg" xmlns:xlink="http://www.w3.org/1999/xlink" x="0px" y="0px"
	 viewBox="0 0 512 512" style="enable-background:new 0 0 512 512;" xml:space="preserve">
<style type="text/css">
	.st0{fill:#FFFFFF;}
</style>
<g>
	<g>
		<rect x="187.7" y="51.2" class="st0" width="17.1" height="17.1"/>
	</g>
</g>
<g>
	<g>
		<rect x="119.5" y="51.2" class="st0" width="17.1" height="17.1"/>
	</g>
</g>
<g>
	<g>
		<rect x="51.2" y="51.2" class="st0" width="17.1" height="17.1"/>
	</g>
</g>
<g>
	<g>
		<path class="st0" d="M473.6,0H38.4C17.2,0,0,17.2,0,38.4v64h512v-64C512,17.2,494.8,0,473.6,0z M85.3,76.8c0,4.7-3.8,8.5-8.5,8.5
			H42.7c-4.7,0-8.5-3.8-8.5-8.5V42.7c0-4.7,3.8-8.5,8.5-8.5h34.1c4.7,0,8.5,3.8,8.5,8.5V76.8z M153.6,76.8c0,4.7-3.8,8.5-8.5,8.5
			h-34.1c-4.7,0-8.5-3.8-8.5-8.5V42.7c0-4.7,3.8-8.5,8.5-8.5h34.1c4.7,0,8.5,3.8,8.5,8.5V76.8z M221.9,76.8c0,4.7-3.8,8.5-8.5,8.5
			h-34.1c-4.7,0-8.5-3.8-8.5-8.5V42.7c0-4.7,3.8-8.5,8.5-8.5h34.1c4.7,0,8.5,3.8,8.5,8.5L221.9,76.8L221.9,76.8z"/>
	</g>
</g>
<g>
	<g>
		<rect x="213.3" y="162.1" class="st0" width="85.3" height="290.1"/>
	</g>
</g>
<g>
	<g>
		<rect x="366.9" y="162.1" class="st0" width="85.3" height="290.1"/>
	</g>
</g>
<g>
	<g>
		<rect x="59.7" y="162.1" class="st0" width="85.3" height="290.1"/>
	</g>
</g>
<g>
	<g>
		<path class="st0" d="M0,119.5v354.1C0,494.8,17.2,512,38.4,512h435.2c21.2,0,38.4-17.2,38.4-38.4V119.5H0z M162.1,460.8
			c0,4.7-3.8,8.5-8.5,8.5H51.2c-4.7,0-8.5-3.8-8.5-8.5V153.6c0-4.7,3.8-8.5,8.5-8.5h102.4c4.7,0,8.5,3.8,8.5,8.5L162.1,460.8
			L162.1,460.8z M315.7,460.8c0,4.7-3.8,8.5-8.5,8.5H204.8c-4.7,0-8.5-3.8-8.5-8.5V153.6c0-4.7,3.8-8.5,8.5-8.5h102.4
			c4.7,0,8.5,3.8,8.5,8.5V460.8z M469.3,460.8c0,4.7-3.8,8.5-8.5,8.5H358.4c-4.7,0-8.5-3.8-8.5-8.5V153.6c0-4.7,3.8-8.5,8.5-8.5
			h102.4c4.7,0,8.5,3.8,8.5,8.5L469.3,460.8L469.3,460.8z"/>
	</g>
</g>
</svg>
