<?xml version="1.0" encoding="iso-8859-1"?>
<!-- Generator: Adobe Illustrator 19.0.0, SVG Export Plug-In . SVG Version: 6.00 Build 0)  -->
<svg version="1.1" id="Capa_1" xmlns="http://www.w3.org/2000/svg" xmlns:xlink="http://www.w3.org/1999/xlink" x="0px" y="0px"
	 viewBox="0 0 512 512" style="enable-background:new 0 0 512 512;" xml:space="preserve">
<g>
	<g>
		<rect x="187.733" y="51.2" width="17.067" height="17.067"/>
	</g>
</g>
<g>
	<g>
		<rect x="119.467" y="51.2" width="17.067" height="17.067"/>
	</g>
</g>
<g>
	<g>
		<rect x="51.2" y="51.2" width="17.067" height="17.067"/>
	</g>
</g>
<g>
	<g>
		<path d="M473.6,0H38.4C17.229,0,0,17.229,0,38.4v64h512v-64C512,17.229,494.771,0,473.6,0z M85.333,76.8
			c0,4.71-3.823,8.533-8.533,8.533H42.667c-4.71,0-8.533-3.823-8.533-8.533V42.667c0-4.71,3.823-8.533,8.533-8.533H76.8
			c4.71,0,8.533,3.823,8.533,8.533V76.8z M153.6,76.8c0,4.71-3.823,8.533-8.533,8.533h-34.133c-4.71,0-8.533-3.823-8.533-8.533
			V42.667c0-4.71,3.823-8.533,8.533-8.533h34.133c4.71,0,8.533,3.823,8.533,8.533V76.8z M221.867,76.8
			c0,4.71-3.823,8.533-8.533,8.533H179.2c-4.71,0-8.533-3.823-8.533-8.533V42.667c0-4.71,3.823-8.533,8.533-8.533h34.133
			c4.71,0,8.533,3.823,8.533,8.533V76.8z"/>
	</g>
</g>
<g>
	<g>
		<rect x="213.333" y="162.133" width="85.333" height="290.133"/>
	</g>
</g>
<g>
	<g>
		<rect x="366.933" y="162.133" width="85.333" height="290.133"/>
	</g>
</g>
<g>
	<g>
		<rect x="59.733" y="162.133" width="85.333" height="290.133"/>
	</g>
</g>
<g>
	<g>
		<path d="M0,119.467V473.6C0,494.771,17.229,512,38.4,512h435.2c21.171,0,38.4-17.229,38.4-38.4V119.467H0z M162.133,460.8
			c0,4.71-3.823,8.533-8.533,8.533H51.2c-4.71,0-8.533-3.823-8.533-8.533V153.6c0-4.71,3.823-8.533,8.533-8.533h102.4
			c4.71,0,8.533,3.823,8.533,8.533V460.8z M315.733,460.8c0,4.71-3.823,8.533-8.533,8.533H204.8c-4.71,0-8.533-3.823-8.533-8.533
			V153.6c0-4.71,3.823-8.533,8.533-8.533h102.4c4.71,0,8.533,3.823,8.533,8.533V460.8z M469.333,460.8
			c0,4.71-3.823,8.533-8.533,8.533H358.4c-4.71,0-8.533-3.823-8.533-8.533V153.6c0-4.71,3.823-8.533,8.533-8.533h102.4
			c4.71,0,8.533,3.823,8.533,8.533V460.8z"/>
	</g>
</g>
<g>
</g>
<g>
</g>
<g>
</g>
<g>
</g>
<g>
</g>
<g>
</g>
<g>
</g>
<g>
</g>
<g>
</g>
<g>
</g>
<g>
</g>
<g>
</g>
<g>
</g>
<g>
</g>
<g>
</g>
</svg>
